<svg width="20" height="20" viewBox="0 0 20 20" fill="none" xmlns="http://www.w3.org/2000/svg">
<path d="M17.7498 12.75C17.9363 12.9358 18.0842 13.1566 18.1852 13.3997C18.2861 13.6428 18.3381 13.9034 18.3381 14.1667C18.3381 14.4299 18.2861 14.6905 18.1852 14.9336C18.0842 15.1767 17.9363 15.3975 17.7498 15.5833L15.5832 17.75C15.3974 17.9364 15.1766 18.0844 14.9335 18.1853C14.6904 18.2863 14.4297 18.3382 14.1665 18.3382C13.9033 18.3382 13.6426 18.2863 13.3995 18.1853C13.1564 18.0844 12.9356 17.9364 12.7498 17.75L2.24984 7.24999C1.8753 6.87363 1.66504 6.36428 1.66504 5.83332C1.66504 5.30236 1.8753 4.79301 2.24984 4.41665L4.4165 2.24999C4.79285 1.87545 5.30221 1.66519 5.83317 1.66519C6.36413 1.66519 6.87348 1.87545 7.24983 2.24999L17.7498 12.75Z" stroke="white" stroke-width="1.66667" stroke-linecap="round" stroke-linejoin="round"/>
<path d="M12.083 10.4167L13.7497 8.75" stroke="white" stroke-width="1.66667" stroke-linecap="round" stroke-linejoin="round"/>
<path d="M9.58301 7.91667L11.2497 6.25" stroke="white" stroke-width="1.66667" stroke-linecap="round" stroke-linejoin="round"/>
<path d="M7.08301 5.41667L8.74967 3.75" stroke="white" stroke-width="1.66667" stroke-linecap="round" stroke-linejoin="round"/>
<path d="M14.583 12.9167L16.2497 11.25" stroke="white" stroke-width="1.66667" stroke-linecap="round" stroke-linejoin="round"/>
</svg>
