<svg xmlns="http://www.w3.org/2000/svg" xmlns:xlink="http://www.w3.org/1999/xlink" width="500" zoomAndPan="magnify" viewBox="0 0 375 374.999991" height="500" preserveAspectRatio="xMidYMid meet" version="1.0"><defs><clipPath id="a7df9e34b1"><path d="M 37.5 17 L 337.5 17 L 337.5 358 L 37.5 358 Z M 37.5 17 " clip-rule="nonzero"/></clipPath></defs><g clip-path="url(#a7df9e34b1)"><path fill="#1904fc" d="M 189.925781 233.574219 L 189.925781 261.347656 C 189.925781 262.132812 190.3125 262.808594 190.996094 263.203125 L 212.730469 275.753906 C 214.164062 276.578125 215.945312 275.550781 215.945312 273.898438 L 215.945312 236.8125 L 305.664062 185.011719 L 333.945312 201.339844 C 336.214844 202.648438 337.515625 204.898438 337.515625 207.519531 L 337.515625 302.878906 C 337.515625 305.5 336.214844 307.75 333.945312 309.058594 L 251.363281 356.738281 C 249.09375 358.046875 246.496094 358.046875 244.226562 356.738281 L 161.640625 309.058594 C 159.371094 307.75 158.074219 305.5 158.074219 302.878906 L 158.074219 216.585938 L 183.554688 231.296875 C 185.570312 232.460938 187.726562 233.21875 189.925781 233.574219 Z M 196.402344 18.328125 C 194.132812 17.019531 191.535156 17.019531 189.265625 18.328125 L 106.679688 66.007812 C 104.410156 67.320312 103.113281 69.570312 103.113281 72.1875 L 103.113281 167.546875 C 103.113281 170.167969 104.410156 172.417969 106.679688 173.726562 L 189.265625 221.40625 C 191.535156 222.71875 194.132812 222.71875 196.402344 221.40625 L 278.984375 173.726562 C 281.253906 172.417969 282.554688 170.167969 282.554688 167.546875 L 282.554688 72.1875 C 282.554688 69.566406 281.253906 67.320312 278.984375 66.007812 L 250.703125 49.679688 L 160.980469 101.480469 L 160.980469 138.566406 C 160.980469 140.21875 159.203125 141.246094 157.769531 140.421875 L 136.035156 127.871094 C 135.351562 127.476562 134.964844 126.804688 134.964844 126.015625 L 134.964844 86.457031 L 224.683594 34.65625 Z M 91.695312 139.257812 L 69.335938 152.167969 L 69.335938 191.726562 C 69.335938 192.511719 69.726562 193.1875 70.40625 193.582031 L 92.144531 206.128906 C 93.574219 206.957031 95.355469 205.929688 95.355469 204.277344 L 95.355469 178.652344 C 96.835938 180.628906 98.730469 182.320312 100.972656 183.617188 L 146.65625 209.992188 L 146.65625 277.949219 L 130.773438 287.117188 C 128.503906 288.429688 125.90625 288.429688 123.636719 287.117188 L 41.054688 239.4375 C 38.785156 238.128906 37.484375 235.878906 37.484375 233.257812 L 37.484375 137.898438 C 37.484375 135.277344 38.785156 133.027344 41.054688 131.71875 L 91.695312 102.480469 Z M 91.695312 139.257812 " fill-opacity="1" fill-rule="evenodd"/></g></svg>