<svg xmlns="http://www.w3.org/2000/svg" xmlns:xlink="http://www.w3.org/1999/xlink" width="500" zoomAndPan="magnify" viewBox="0 0 375 374.999991" height="500" preserveAspectRatio="xMidYMid meet" version="1.0"><defs><clipPath id="9fca6d1a0b"><path d="M 187.5 0 C 83.945312 0 0 83.945312 0 187.5 C 0 291.054688 83.945312 375 187.5 375 C 291.054688 375 375 291.054688 375 187.5 C 375 83.945312 291.054688 0 187.5 0 Z M 187.5 0 " clip-rule="nonzero"/></clipPath><clipPath id="d0513b39a8"><path d="M 0 0 L 375 0 L 375 375 L 0 375 Z M 0 0 " clip-rule="nonzero"/></clipPath><clipPath id="4de97ed60b"><path d="M 187.5 0 C 83.945312 0 0 83.945312 0 187.5 C 0 291.054688 83.945312 375 187.5 375 C 291.054688 375 375 291.054688 375 187.5 C 375 83.945312 291.054688 0 187.5 0 Z M 187.5 0 " clip-rule="nonzero"/></clipPath><clipPath id="960515cb67"><rect x="0" width="375" y="0" height="375"/></clipPath><clipPath id="e579532498"><path d="M 69.089844 53 L 306 53 L 306 322 L 69.089844 322 Z M 69.089844 53 " clip-rule="nonzero"/></clipPath></defs><g clip-path="url(#9fca6d1a0b)"><g transform="matrix(1, 0, 0, 1, 0, 0)"><g clip-path="url(#960515cb67)"><g clip-path="url(#d0513b39a8)"><g clip-path="url(#4de97ed60b)"><rect x="-82.5" width="540" fill="#ffffff" height="539.999987" y="-82.499998" fill-opacity="1"/></g></g></g></g></g><g clip-path="url(#e579532498)"><path fill="#1904fc" d="M 189.410156 223.867188 L 189.410156 245.789062 C 189.410156 246.410156 189.71875 246.945312 190.257812 247.253906 L 207.414062 257.160156 C 208.546875 257.8125 209.949219 257.003906 209.949219 255.699219 L 209.949219 226.421875 L 280.773438 185.53125 L 303.097656 198.421875 C 304.890625 199.457031 305.914062 201.230469 305.914062 203.300781 L 305.914062 278.574219 C 305.914062 280.644531 304.890625 282.417969 303.097656 283.453125 L 237.910156 321.089844 C 236.117188 322.125 234.066406 322.125 232.277344 321.089844 L 167.085938 283.453125 C 165.292969 282.417969 164.269531 280.644531 164.269531 278.574219 L 164.269531 210.457031 L 184.382812 222.066406 C 185.976562 222.988281 187.675781 223.585938 189.410156 223.867188 Z M 194.523438 53.957031 C 192.730469 52.921875 190.683594 52.921875 188.890625 53.957031 L 123.699219 91.59375 C 121.910156 92.628906 120.882812 94.40625 120.882812 96.472656 L 120.882812 171.746094 C 120.882812 173.816406 121.910156 175.589844 123.699219 176.625 L 188.890625 214.261719 C 190.683594 215.296875 192.730469 215.296875 194.523438 214.261719 L 259.714844 176.625 C 261.503906 175.589844 262.53125 173.816406 262.53125 171.746094 L 262.53125 96.472656 C 262.53125 94.402344 261.503906 92.628906 259.714844 91.59375 L 237.386719 78.703125 L 166.566406 119.59375 L 166.566406 148.871094 C 166.566406 150.175781 165.160156 150.984375 164.03125 150.332031 L 146.871094 140.425781 C 146.335938 140.117188 146.027344 139.585938 146.027344 138.964844 L 146.027344 107.734375 L 216.847656 66.847656 Z M 111.871094 149.414062 L 94.222656 159.605469 L 94.222656 190.832031 C 94.222656 191.453125 94.53125 191.984375 95.066406 192.296875 L 112.226562 202.203125 C 113.355469 202.855469 114.761719 202.046875 114.761719 200.738281 L 114.761719 180.511719 C 115.929688 182.074219 117.425781 183.410156 119.195312 184.429688 L 155.253906 205.25 L 155.253906 258.894531 L 142.71875 266.132812 C 140.925781 267.167969 138.875 267.167969 137.085938 266.132812 L 71.898438 228.496094 C 70.105469 227.460938 69.078125 225.6875 69.078125 223.617188 L 69.078125 148.34375 C 69.078125 146.273438 70.105469 144.496094 71.898438 143.464844 L 111.871094 120.382812 Z M 111.871094 149.414062 " fill-opacity="1" fill-rule="evenodd"/></g></svg>