<svg width="11" height="11" viewBox="0 0 11 11" fill="none" xmlns="http://www.w3.org/2000/svg">
<g clip-path="url(#clip0_1_425)">
<path d="M9.07678 7.51874L5.73512 1.67083C5.66225 1.54226 5.55659 1.43532 5.4289 1.36092C5.30122 1.28651 5.15608 1.24731 5.0083 1.24731C4.86052 1.24731 4.71539 1.28651 4.5877 1.36092C4.46002 1.43532 4.35435 1.54226 4.28149 1.67083L0.939825 7.51874C0.866176 7.6463 0.827557 7.79105 0.827883 7.93834C0.828209 8.08562 0.867469 8.23021 0.941682 8.35743C1.0159 8.48465 1.12243 8.58999 1.25047 8.66278C1.37852 8.73556 1.52353 8.77319 1.67081 8.77187H8.35415C8.50072 8.77172 8.64468 8.73301 8.77156 8.65962C8.89844 8.58624 9.00378 8.48076 9.077 8.35379C9.15022 8.22682 9.18875 8.08281 9.18871 7.93624C9.18867 7.78966 9.15007 7.64568 9.07678 7.51874Z" stroke="#FF6200" stroke-width="0.835417" stroke-linecap="round" stroke-linejoin="round"/>
<path d="M5.01245 3.7594V5.43023" stroke="#FF6200" stroke-width="0.835417" stroke-linecap="round" stroke-linejoin="round"/>
<path d="M5.01245 7.10101H5.01663" stroke="#FF6200" stroke-width="0.835417" stroke-linecap="round" stroke-linejoin="round"/>
</g>
<defs>
<clipPath id="clip0_1_425">
<rect width="10.025" height="10.025" fill="white"/>
</clipPath>
</defs>
</svg>
