<svg width="16" height="16" viewBox="0 0 16 16" fill="none" xmlns="http://www.w3.org/2000/svg">
<g clip-path="url(#clip0_1_1841)">
<path d="M14.1156 4.54135C14.4681 4.18897 14.6662 3.711 14.6662 3.21259C14.6663 2.71418 14.4683 2.23616 14.116 1.88369C13.7636 1.53121 13.2856 1.33316 12.7872 1.3331C12.2888 1.33304 11.8108 1.53097 11.4583 1.88335L2.56096 10.7827C2.40618 10.937 2.29171 11.127 2.22763 11.336L1.34696 14.2374C1.32973 14.295 1.32843 14.3563 1.3432 14.4146C1.35796 14.4729 1.38824 14.5262 1.43083 14.5687C1.47341 14.6112 1.52671 14.6414 1.58507 14.6561C1.64343 14.6707 1.70467 14.6693 1.7623 14.652L4.6643 13.772C4.87308 13.7085 5.06308 13.5947 5.21763 13.4407L14.1156 4.54135Z" stroke="#4A5565" stroke-width="1.33333" stroke-linecap="round" stroke-linejoin="round"/>
</g>
<defs>
<clipPath id="clip0_1_1841">
<rect width="16" height="16" fill="white"/>
</clipPath>
</defs>
</svg>
