<svg width="12" height="11" viewBox="0 0 12 11" fill="none" xmlns="http://www.w3.org/2000/svg">
<path d="M9.84615 5.78947C10.0554 5.78947 10.2585 5.81263 10.4615 5.84158V2.89474H0.615385V10.4211H6.36923C6.23385 10.0563 6.15385 9.66842 6.15385 9.26316C6.15385 7.34684 7.80923 5.78947 9.84615 5.78947ZM3.69231 5.78947V4.92105C3.69231 4.75895 3.82769 4.63158 4 4.63158H7.07692C7.24923 4.63158 7.38462 4.75895 7.38462 4.92105V5.78947H3.69231ZM11.0769 2.31579H0V0H11.0769V2.31579ZM12 8.25L9.07692 11L7.38462 9.26316L8.09846 8.59158L9.07692 9.51211L11.2862 7.43368L12 8.25Z" fill="#00A63E"/>
</svg>
