<svg width="20" height="20" viewBox="0 0 20 20" fill="none" xmlns="http://www.w3.org/2000/svg">
<path d="M17.75 12.75C17.9364 12.9358 18.0843 13.1566 18.1853 13.3997C18.2862 13.6428 18.3382 13.9034 18.3382 14.1667C18.3382 14.4299 18.2862 14.6905 18.1853 14.9336C18.0843 15.1767 17.9364 15.3975 17.75 15.5833L15.5833 17.75C15.3975 17.9364 15.1767 18.0844 14.9336 18.1853C14.6905 18.2863 14.4299 18.3382 14.1666 18.3382C13.9034 18.3382 13.6428 18.2863 13.3997 18.1853C13.1565 18.0844 12.9358 17.9364 12.75 17.75L2.24996 7.24999C1.87542 6.87363 1.66516 6.36428 1.66516 5.83332C1.66516 5.30236 1.87542 4.79301 2.24996 4.41665L4.41662 2.24999C4.79298 1.87545 5.30233 1.66519 5.83329 1.66519C6.36425 1.66519 6.8736 1.87545 7.24996 2.24999L17.75 12.75Z" stroke="#364153" stroke-width="1.66667" stroke-linecap="round" stroke-linejoin="round"/>
<path d="M12.0834 10.4167L13.75 8.75" stroke="#364153" stroke-width="1.66667" stroke-linecap="round" stroke-linejoin="round"/>
<path d="M9.58337 7.91667L11.25 6.25" stroke="#364153" stroke-width="1.66667" stroke-linecap="round" stroke-linejoin="round"/>
<path d="M7.08337 5.41667L8.75004 3.75" stroke="#364153" stroke-width="1.66667" stroke-linecap="round" stroke-linejoin="round"/>
<path d="M14.5834 12.9167L16.25 11.25" stroke="#364153" stroke-width="1.66667" stroke-linecap="round" stroke-linejoin="round"/>
</svg>
