<svg xmlns="http://www.w3.org/2000/svg" xmlns:xlink="http://www.w3.org/1999/xlink" width="1900" zoomAndPan="magnify" viewBox="0 0 1425 277.499997" height="370" preserveAspectRatio="xMidYMid meet" version="1.0"><defs><g/><clipPath id="ec3a4566c3"><path d="M 8 11 L 1423.71875 11 L 1423.71875 266 L 8 266 Z M 8 11 " clip-rule="nonzero"/></clipPath><clipPath id="48dba7e1c1"><path d="M 0.769531 0.0195312 L 224.457031 0.0195312 L 224.457031 254.679688 L 0.769531 254.679688 Z M 0.769531 0.0195312 " clip-rule="nonzero"/></clipPath><clipPath id="c384943f4e"><path d="M 282 48 L 1415.71875 48 L 1415.71875 245 L 282 245 Z M 282 48 " clip-rule="nonzero"/></clipPath><clipPath id="997e4fc337"><rect x="0" width="1134" y="0" height="197"/></clipPath><clipPath id="5405e9e9c8"><rect x="0" width="1416" y="0" height="255"/></clipPath></defs><g clip-path="url(#ec3a4566c3)"><g transform="matrix(1, 0, 0, 1, 8, 11)"><g clip-path="url(#5405e9e9c8)"><g clip-path="url(#48dba7e1c1)"><path fill="#ffffff" d="M 114.433594 161.636719 L 114.433594 182.347656 C 114.433594 182.933594 114.726562 183.4375 115.234375 183.730469 L 131.441406 193.089844 C 132.511719 193.707031 133.835938 192.941406 133.835938 191.707031 L 133.835938 164.050781 L 200.742188 125.421875 L 221.832031 137.597656 C 223.527344 138.574219 224.496094 140.253906 224.496094 142.207031 L 224.496094 213.320312 C 224.496094 215.273438 223.527344 216.949219 221.832031 217.925781 L 160.25 253.484375 C 158.558594 254.460938 156.621094 254.460938 154.925781 253.484375 L 93.34375 217.925781 C 91.652344 216.949219 90.683594 215.273438 90.683594 213.320312 L 90.683594 148.96875 L 109.683594 159.9375 C 111.1875 160.804688 112.796875 161.371094 114.433594 161.636719 Z M 119.261719 1.125 C 117.570312 0.144531 115.632812 0.144531 113.941406 1.125 L 52.355469 36.679688 C 50.664062 37.65625 49.695312 39.335938 49.695312 41.289062 L 49.695312 112.398438 C 49.695312 114.355469 50.664062 116.03125 52.355469 117.007812 L 113.941406 152.5625 C 115.632812 153.542969 117.570312 153.542969 119.261719 152.5625 L 180.847656 117.007812 C 182.539062 116.03125 183.507812 114.355469 183.507812 112.398438 L 183.507812 41.289062 C 183.507812 39.332031 182.539062 37.65625 180.847656 36.679688 L 159.757812 24.503906 L 92.851562 63.132812 L 92.851562 90.789062 C 92.851562 92.019531 91.523438 92.785156 90.457031 92.171875 L 74.246094 82.8125 C 73.738281 82.519531 73.449219 82.015625 73.449219 81.429688 L 73.449219 51.929688 L 140.355469 13.300781 Z M 41.183594 91.304688 L 24.507812 100.929688 L 24.507812 130.429688 C 24.507812 131.015625 24.800781 131.519531 25.308594 131.8125 L 41.515625 141.171875 C 42.585938 141.789062 43.910156 141.023438 43.910156 139.789062 L 43.910156 120.679688 C 45.015625 122.152344 46.429688 123.417969 48.097656 124.382812 L 82.167969 144.050781 L 82.167969 194.726562 L 70.324219 201.566406 C 68.632812 202.542969 66.695312 202.542969 65 201.566406 L 3.417969 166.007812 C 1.726562 165.03125 0.757812 163.355469 0.757812 161.402344 L 0.757812 90.289062 C 0.757812 88.335938 1.726562 86.65625 3.417969 85.679688 L 41.183594 63.878906 Z M 41.183594 91.304688 " fill-opacity="1" fill-rule="evenodd"/></g><path stroke-linecap="round" transform="matrix(0, -0.916752, 0.916752, 0, 254.181777, 179.512637)" fill="none" stroke-linejoin="miter" d="M 1.500862 1.501842 L 112.464997 1.501842 " stroke="#ffffff" stroke-width="3" stroke-opacity="1" stroke-miterlimit="4"/><g clip-path="url(#c384943f4e)"><g transform="matrix(1, 0, 0, 1, 282, 48)"><g clip-path="url(#997e4fc337)"><g fill="#ffffff" fill-opacity="1"><g transform="translate(1.085353, 150.751112)"><g><path d="M 82.078125 -42.59375 C 82.078125 -47.445312 79.617188 -51.363281 74.703125 -54.34375 C 69.785156 -57.320312 63.789062 -59.8125 56.71875 -61.8125 C 49.65625 -63.820312 42.625 -66.175781 35.625 -68.875 C 28.632812 -71.582031 22.679688 -76.050781 17.765625 -82.28125 C 12.847656 -88.519531 10.390625 -96.414062 10.390625 -105.96875 C 10.390625 -117.75 15.097656 -127.796875 24.515625 -136.109375 C 33.941406 -144.421875 46.203125 -148.578125 61.296875 -148.578125 C 67.253906 -148.578125 73.003906 -147.882812 78.546875 -146.5 C 84.085938 -145.113281 88.625 -143.484375 92.15625 -141.609375 C 95.6875 -139.742188 98.800781 -137.835938 101.5 -135.890625 C 104.207031 -133.953125 106.113281 -132.289062 107.21875 -130.90625 L 109.09375 -128.828125 L 90.390625 -109.09375 C 89.554688 -110.0625 88.410156 -111.238281 86.953125 -112.625 C 85.503906 -114.007812 82.457031 -115.84375 77.8125 -118.125 C 73.175781 -120.414062 68.363281 -121.5625 63.375 -121.5625 C 57.414062 -121.5625 52.632812 -120.035156 49.03125 -116.984375 C 45.4375 -113.941406 43.640625 -110.269531 43.640625 -105.96875 C 43.640625 -101.125 46.097656 -97.210938 51.015625 -94.234375 C 55.929688 -91.253906 61.882812 -88.757812 68.875 -86.75 C 75.875 -84.738281 82.90625 -82.382812 89.96875 -79.6875 C 97.039062 -76.988281 103.035156 -72.519531 107.953125 -66.28125 C 112.867188 -60.050781 115.328125 -52.15625 115.328125 -42.59375 C 115.328125 -29.15625 110.441406 -18.175781 100.671875 -9.65625 C 90.910156 -1.144531 77.441406 3.109375 60.265625 3.109375 C 53.472656 3.109375 46.925781 2.273438 40.625 0.609375 C 34.320312 -1.046875 29.125 -3.015625 25.03125 -5.296875 C 20.945312 -7.585938 17.347656 -9.910156 14.234375 -12.265625 C 11.117188 -14.617188 8.867188 -16.625 7.484375 -18.28125 L 5.1875 -20.78125 L 23.890625 -39.484375 C 24.859375 -38.367188 26.207031 -36.945312 27.9375 -35.21875 C 29.675781 -33.488281 33.523438 -31.164062 39.484375 -28.25 C 45.441406 -25.34375 51.675781 -23.890625 58.1875 -23.890625 C 65.664062 -23.890625 71.515625 -25.65625 75.734375 -29.1875 C 79.960938 -32.726562 82.078125 -37.195312 82.078125 -42.59375 Z M 82.078125 -42.59375 "/></g></g></g><g fill="#ffffff" fill-opacity="1"><g transform="translate(125.762482, 150.751112)"><g><path d="M 24.9375 -113.25 L 24.9375 -131.953125 L 49.875 -131.953125 L 49.875 -99.75 L 70.65625 -99.75 L 70.65625 -74.8125 L 49.875 -74.8125 L 49.875 -34.28125 C 49.875 -31.09375 51.050781 -28.390625 53.40625 -26.171875 C 55.757812 -23.960938 58.738281 -22.859375 62.34375 -22.859375 C 64.144531 -22.859375 65.910156 -23.03125 67.640625 -23.375 C 69.367188 -23.71875 70.648438 -24.097656 71.484375 -24.515625 L 72.734375 -24.9375 L 72.734375 -1.03125 C 67.191406 1.039062 60.957031 2.078125 54.03125 2.078125 C 32.550781 2.078125 21.8125 -9.695312 21.8125 -33.25 L 21.8125 -74.8125 L 4.15625 -74.8125 L 4.15625 -99.75 L 13.5 -99.75 C 16.6875 -99.75 19.390625 -100.992188 21.609375 -103.484375 C 23.828125 -105.972656 24.9375 -109.226562 24.9375 -113.25 Z M 24.9375 -113.25 "/></g></g></g><g fill="#ffffff" fill-opacity="1"><g transform="translate(209.919537, 150.751112)"><g><path d="M 42.8125 -70.03125 C 37.820312 -64.90625 35.328125 -58.53125 35.328125 -50.90625 C 35.328125 -43.289062 37.785156 -36.882812 42.703125 -31.6875 C 47.617188 -26.488281 53.46875 -23.890625 60.25 -23.890625 C 67.039062 -23.890625 72.894531 -26.488281 77.8125 -31.6875 C 82.738281 -36.882812 85.203125 -43.289062 85.203125 -50.90625 C 85.203125 -58.53125 82.738281 -64.9375 77.8125 -70.125 C 72.894531 -75.320312 67.039062 -77.921875 60.25 -77.921875 C 53.46875 -77.921875 47.65625 -75.289062 42.8125 -70.03125 Z M 98.078125 -88.109375 C 108.878906 -77.441406 114.28125 -65.039062 114.28125 -50.90625 C 114.28125 -36.78125 108.910156 -24.414062 98.171875 -13.8125 C 87.441406 -3.21875 74.800781 2.078125 60.25 2.078125 C 45.707031 2.078125 33.066406 -3.21875 22.328125 -13.8125 C 11.597656 -24.414062 6.234375 -36.78125 6.234375 -50.90625 C 6.234375 -65.039062 11.597656 -77.40625 22.328125 -88 C 33.066406 -98.59375 45.707031 -103.890625 60.25 -103.890625 C 74.800781 -103.890625 87.410156 -98.628906 98.078125 -88.109375 Z M 98.078125 -88.109375 "/></g></g></g><g fill="#ffffff" fill-opacity="1"><g transform="translate(332.518707, 150.751112)"><g><path d="M 22.4375 -13.921875 C 11.632812 -24.453125 6.234375 -36.78125 6.234375 -50.90625 C 6.234375 -65.039062 11.671875 -77.40625 22.546875 -88 C 33.421875 -98.59375 46.335938 -103.890625 61.296875 -103.890625 C 66.566406 -103.890625 71.585938 -103.160156 76.359375 -101.703125 C 81.140625 -100.253906 85.050781 -98.523438 88.09375 -96.515625 C 91.144531 -94.515625 93.847656 -92.507812 96.203125 -90.5 C 98.566406 -88.488281 100.300781 -86.722656 101.40625 -85.203125 L 102.859375 -83.125 L 85.203125 -65.453125 C 84.640625 -66.421875 83.734375 -67.664062 82.484375 -69.1875 C 81.242188 -70.71875 78.546875 -72.726562 74.390625 -75.21875 C 70.234375 -77.71875 65.867188 -78.96875 61.296875 -78.96875 C 53.953125 -78.96875 47.613281 -76.226562 42.28125 -70.75 C 36.945312 -65.28125 34.28125 -58.664062 34.28125 -50.90625 C 34.28125 -43.15625 36.945312 -36.539062 42.28125 -31.0625 C 47.613281 -25.59375 53.953125 -22.859375 61.296875 -22.859375 C 65.867188 -22.859375 70.234375 -23.960938 74.390625 -26.171875 C 78.546875 -28.390625 81.59375 -30.609375 83.53125 -32.828125 L 86.234375 -36.359375 L 102.859375 -18.703125 C 102.441406 -18.148438 101.882812 -17.390625 101.1875 -16.421875 C 100.5 -15.453125 98.875 -13.785156 96.3125 -11.421875 C 93.75 -9.066406 90.976562 -6.988281 88 -5.1875 C 85.019531 -3.394531 81.140625 -1.734375 76.359375 -0.203125 C 71.585938 1.316406 66.566406 2.078125 61.296875 2.078125 C 46.335938 2.078125 33.382812 -3.253906 22.4375 -13.921875 Z M 22.4375 -13.921875 "/></g></g></g><g fill="#ffffff" fill-opacity="1"><g transform="translate(441.6112, 150.751112)"><g><path d="M 54.03125 -39.484375 L 41.5625 -24.9375 L 41.5625 0 L 13.5 0 L 13.5 -145.453125 L 41.5625 -145.453125 L 41.5625 -60.265625 L 77.921875 -101.828125 L 110.125 -101.828125 L 71.6875 -58.1875 L 112.203125 0 L 81.046875 0 Z M 54.03125 -39.484375 "/></g></g></g><g fill="#ffffff" fill-opacity="1"><g transform="translate(554.859658, 150.751112)"><g><path d="M 96.625 -82.078125 L 146.90625 -145.453125 L 174.546875 -145.453125 L 174.546875 0 L 143.375 0 L 143.375 -97.046875 L 96.625 -37.40625 L 49.875 -96.625 L 49.875 0 L 18.703125 0 L 18.703125 -145.453125 L 46.75 -145.453125 Z M 96.625 -82.078125 "/></g></g></g><g fill="#ffffff" fill-opacity="1"><g transform="translate(748.109183, 150.751112)"><g><path d="M 41.5625 -101.828125 L 41.5625 0 L 13.5 0 L 13.5 -101.828125 Z M 39.0625 -142.34375 C 42.113281 -139.4375 43.640625 -135.625 43.640625 -130.90625 C 43.640625 -126.195312 42.148438 -122.421875 39.171875 -119.578125 C 36.191406 -116.742188 32.140625 -115.328125 27.015625 -115.328125 C 22.304688 -115.328125 18.53125 -116.742188 15.6875 -119.578125 C 12.84375 -122.421875 11.421875 -126.195312 11.421875 -130.90625 C 11.421875 -135.625 12.84375 -139.398438 15.6875 -142.234375 C 18.53125 -145.078125 22.304688 -146.5 27.015625 -146.5 C 32.140625 -146.5 36.15625 -145.113281 39.0625 -142.34375 Z M 39.0625 -142.34375 "/></g></g></g><g fill="#ffffff" fill-opacity="1"><g transform="translate(805.252907, 150.751112)"><g><path d="M 82.078125 -8.3125 L 82.078125 -16.625 C 81.804688 -16.207031 81.390625 -15.6875 80.828125 -15.0625 C 80.273438 -14.4375 79.0625 -13.289062 77.1875 -11.625 C 75.320312 -9.96875 73.316406 -8.476562 71.171875 -7.15625 C 69.023438 -5.84375 66.21875 -4.664062 62.75 -3.625 C 59.289062 -2.59375 55.691406 -2.078125 51.953125 -2.078125 C 40.316406 -2.078125 29.785156 -7.132812 20.359375 -17.25 C 10.941406 -27.363281 6.234375 -39.273438 6.234375 -52.984375 C 6.234375 -66.703125 10.941406 -78.613281 20.359375 -88.71875 C 29.785156 -98.832031 40.316406 -103.890625 51.953125 -103.890625 C 57.765625 -103.890625 63.195312 -102.675781 68.25 -100.25 C 73.3125 -97.832031 76.882812 -95.445312 78.96875 -93.09375 L 82.078125 -89.359375 L 82.078125 -101.828125 L 110.125 -101.828125 L 110.125 -8.3125 C 110.125 6.375 105 18.703125 94.75 28.671875 C 84.5 38.648438 71.617188 43.640625 56.109375 43.640625 C 50.285156 43.640625 44.707031 42.875 39.375 41.34375 C 34.039062 39.820312 29.609375 38.019531 26.078125 35.9375 C 22.546875 33.863281 19.460938 31.753906 16.828125 29.609375 C 14.203125 27.460938 12.332031 25.628906 11.21875 24.109375 L 9.34375 21.8125 L 27.015625 5.1875 C 27.703125 6.164062 28.738281 7.414062 30.125 8.9375 C 31.507812 10.457031 34.625 12.460938 39.46875 14.953125 C 44.320312 17.453125 49.519531 18.703125 55.0625 18.703125 C 63.375 18.703125 69.953125 16.273438 74.796875 11.421875 C 79.648438 6.578125 82.078125 0 82.078125 -8.3125 Z M 41.96875 -70.859375 C 37.539062 -66.148438 35.328125 -60.191406 35.328125 -52.984375 C 35.328125 -45.785156 37.539062 -39.828125 41.96875 -35.109375 C 46.40625 -30.398438 51.804688 -28.046875 58.171875 -28.046875 C 64.546875 -28.046875 70.125 -30.46875 74.90625 -35.3125 C 79.6875 -40.164062 82.078125 -46.054688 82.078125 -52.984375 C 82.078125 -59.910156 79.6875 -65.796875 74.90625 -70.640625 C 70.125 -75.492188 64.546875 -77.921875 58.171875 -77.921875 C 51.804688 -77.921875 46.40625 -75.566406 41.96875 -70.859375 Z M 41.96875 -70.859375 "/></g></g></g><g fill="#ffffff" fill-opacity="1"><g transform="translate(929.929991, 150.751112)"><g><path d="M 41.5625 -145.453125 L 41.5625 -89.359375 C 42.394531 -90.460938 43.535156 -91.8125 44.984375 -93.40625 C 46.441406 -95 49.695312 -97.144531 54.75 -99.84375 C 59.8125 -102.539062 65.113281 -103.890625 70.65625 -103.890625 C 82.289062 -103.890625 91.773438 -99.875 99.109375 -91.84375 C 106.453125 -83.8125 110.125 -72.9375 110.125 -59.21875 L 110.125 0 L 82.078125 0 L 82.078125 -56.109375 C 82.078125 -62.335938 80.238281 -67.359375 76.5625 -71.171875 C 72.894531 -74.984375 68.15625 -76.890625 62.34375 -76.890625 C 55.96875 -76.890625 50.910156 -74.8125 47.171875 -70.65625 C 43.429688 -66.5 41.5625 -60.609375 41.5625 -52.984375 L 41.5625 0 L 13.5 0 L 13.5 -145.453125 Z M 41.5625 -145.453125 "/></g></g></g><g fill="#ffffff" fill-opacity="1"><g transform="translate(1054.607166, 150.751112)"><g><path d="M 24.9375 -113.25 L 24.9375 -131.953125 L 49.875 -131.953125 L 49.875 -99.75 L 70.65625 -99.75 L 70.65625 -74.8125 L 49.875 -74.8125 L 49.875 -34.28125 C 49.875 -31.09375 51.050781 -28.390625 53.40625 -26.171875 C 55.757812 -23.960938 58.738281 -22.859375 62.34375 -22.859375 C 64.144531 -22.859375 65.910156 -23.03125 67.640625 -23.375 C 69.367188 -23.71875 70.648438 -24.097656 71.484375 -24.515625 L 72.734375 -24.9375 L 72.734375 -1.03125 C 67.191406 1.039062 60.957031 2.078125 54.03125 2.078125 C 32.550781 2.078125 21.8125 -9.695312 21.8125 -33.25 L 21.8125 -74.8125 L 4.15625 -74.8125 L 4.15625 -99.75 L 13.5 -99.75 C 16.6875 -99.75 19.390625 -100.992188 21.609375 -103.484375 C 23.828125 -105.972656 24.9375 -109.226562 24.9375 -113.25 Z M 24.9375 -113.25 "/></g></g></g></g></g></g></g></g></g></svg>