<svg width="10" height="10" viewBox="0 0 10 10" fill="none" xmlns="http://www.w3.org/2000/svg">
<g clip-path="url(#clip0_1_876)">
<path d="M8.28454 6.86248L5.23454 1.52498C5.16804 1.40763 5.07159 1.31002 4.95505 1.24211C4.83851 1.17421 4.70605 1.13843 4.57116 1.13843C4.43628 1.13843 4.30381 1.17421 4.18727 1.24211C4.07073 1.31002 3.97429 1.40763 3.90779 1.52498L0.857789 6.86248C0.790568 6.97889 0.755319 7.11101 0.755617 7.24545C0.755915 7.37988 0.791748 7.51184 0.859484 7.62796C0.92722 7.74408 1.02445 7.84022 1.14132 7.90665C1.25819 7.97308 1.39055 8.00744 1.52498 8.00623H7.62498C7.75876 8.00609 7.89015 7.97076 8.00595 7.90378C8.12176 7.8368 8.2179 7.74053 8.28473 7.62464C8.35157 7.50875 8.38673 7.37731 8.38669 7.24353C8.38666 7.10975 8.35143 6.97833 8.28454 6.86248Z" stroke="#FF6200" stroke-width="0.7625" stroke-linecap="round" stroke-linejoin="round"/>
<path d="M4.57495 3.43127V4.95627" stroke="#FF6200" stroke-width="0.7625" stroke-linecap="round" stroke-linejoin="round"/>
<path d="M4.57495 6.48126H4.57876" stroke="#FF6200" stroke-width="0.7625" stroke-linecap="round" stroke-linejoin="round"/>
</g>
<defs>
<clipPath id="clip0_1_876">
<rect width="9.15" height="9.15" fill="white"/>
</clipPath>
</defs>
</svg>
